<svg width="20" height="20" viewBox="0 0 20 20" fill="none" xmlns="http://www.w3.org/2000/svg">
<circle cx="10" cy="10" r="10" fill="#F5AC3C"/>
<path d="M12.8285 11.8283L12.2832 12.3677C11.8812 12.7618 11.3598 13.269 10.7185 13.8892C10.5257 14.0756 10.2681 14.1797 10 14.1797C9.73188 14.1797 9.47425 14.0756 9.2815 13.8892L7.67773 12.3291C7.47606 12.1311 7.30745 11.9643 7.17147 11.8283C6.61209 11.2689 6.23116 10.5562 6.07684 9.78025C5.92252 9.00434 6.00175 8.20009 6.30451 7.4692C6.60727 6.73831 7.11996 6.11361 7.77775 5.6741C8.43554 5.23459 9.20889 5 10 5C10.7911 5 11.5645 5.23459 12.2222 5.6741C12.88 6.11361 13.3927 6.73831 13.6955 7.4692C13.9982 8.20009 14.0775 9.00434 13.9232 9.78025C13.7688 10.5562 13.3879 11.2689 12.8285 11.8283ZM11.1485 9.12613C11.1485 8.82153 11.0275 8.5294 10.8121 8.31402C10.5967 8.09863 10.3046 7.97763 10 7.97763C9.6954 7.97763 9.40327 8.09863 9.18789 8.31402C8.9725 8.5294 8.8515 8.82153 8.8515 9.12613C8.8515 9.43073 8.9725 9.72286 9.18789 9.93824C9.40327 10.1536 9.6954 10.2746 10 10.2746C10.3046 10.2746 10.5967 10.1536 10.8121 9.93824C11.0275 9.72286 11.1485 9.43073 11.1485 9.12613Z" fill="white"/>
</svg>
