<svg width="21" height="20" viewBox="0 0 21 20" fill="none" xmlns="http://www.w3.org/2000/svg">
<circle cx="10.0309" cy="10" r="10" fill="#F5AC3C"/>
<path fill-rule="evenodd" clip-rule="evenodd" d="M12.5309 6.125C12.5309 6.02554 12.4914 5.93016 12.421 5.85984C12.3507 5.78951 12.2553 5.75 12.1559 5.75H6.15588C6.05643 5.75 5.96104 5.78951 5.89072 5.85984C5.82039 5.93016 5.78088 6.02554 5.78088 6.125V12.875C5.78088 12.9745 5.82039 13.0698 5.89072 13.1402C5.96104 13.2105 6.05643 13.25 6.15588 13.25H12.1559C12.2553 13.25 12.3507 13.2105 12.421 13.1402C12.4914 13.0698 12.5309 12.9745 12.5309 12.875V11.375C12.5309 11.2755 12.5704 11.1802 12.6407 11.1098C12.711 11.0395 12.8064 11 12.9059 11C13.0053 11 13.1007 11.0395 13.171 11.1098C13.2414 11.1802 13.2809 11.2755 13.2809 11.375V12.875C13.2809 13.1734 13.1624 13.4595 12.9514 13.6705C12.7404 13.8815 12.4543 14 12.1559 14H6.15588C5.85752 14 5.57137 13.8815 5.36039 13.6705C5.14941 13.4595 5.03088 13.1734 5.03088 12.875V6.125C5.03088 5.82663 5.14941 5.54048 5.36039 5.3295C5.57137 5.11853 5.85752 5 6.15588 5H12.1559C12.4543 5 12.7404 5.11853 12.9514 5.3295C13.1624 5.54048 13.2809 5.82663 13.2809 6.125V7.625C13.2809 7.72446 13.2414 7.81984 13.171 7.89016C13.1007 7.96049 13.0053 8 12.9059 8C12.8064 8 12.711 7.96049 12.6407 7.89016C12.5704 7.81984 12.5309 7.72446 12.5309 7.625V6.125Z" fill="white"/>
<path fill-rule="evenodd" clip-rule="evenodd" d="M8.14038 9.76549C8.10546 9.73065 8.07775 9.68927 8.05885 9.64371C8.03994 9.59815 8.03021 9.54931 8.03021 9.49999C8.03021 9.45066 8.03994 9.40182 8.05885 9.35626C8.07775 9.3107 8.10546 9.26932 8.14038 9.23449L10.3904 6.98449C10.4608 6.91407 10.5563 6.87451 10.6559 6.87451C10.7555 6.87451 10.851 6.91407 10.9214 6.98449C10.9918 7.0549 11.0314 7.1504 11.0314 7.24999C11.0314 7.34957 10.9918 7.44507 10.9214 7.51549L9.31113 9.12499H15.9059C16.0053 9.12499 16.1007 9.16449 16.171 9.23482C16.2414 9.30515 16.2809 9.40053 16.2809 9.49999C16.2809 9.59944 16.2414 9.69482 16.171 9.76515C16.1007 9.83548 16.0053 9.87499 15.9059 9.87499H9.31113L10.9214 11.4845C10.9562 11.5194 10.9839 11.5607 11.0028 11.6063C11.0216 11.6519 11.0314 11.7007 11.0314 11.75C11.0314 11.7993 11.0216 11.8481 11.0028 11.8937C10.9839 11.9392 10.9562 11.9806 10.9214 12.0155C10.8865 12.0504 10.8451 12.078 10.7996 12.0969C10.754 12.1157 10.7052 12.1255 10.6559 12.1255C10.6066 12.1255 10.5577 12.1157 10.5122 12.0969C10.4666 12.078 10.4252 12.0504 10.3904 12.0155L8.14038 9.76549Z" fill="white"/>
</svg>
