<svg width="21" height="20" viewBox="0 0 21 20" fill="none" xmlns="http://www.w3.org/2000/svg">
<circle cx="10.0927" cy="10" r="10" fill="#F5AC3C"/>
<path d="M9.05291 5.00523L13.3654 5.84899C13.4294 5.86151 13.4871 5.89588 13.5286 5.94623C13.57 5.99658 13.5927 6.05977 13.5927 6.12499V12.875C13.5927 12.9402 13.57 13.0034 13.5286 13.0538C13.4871 13.1041 13.4294 13.1385 13.3654 13.151L9.05291 13.9948C9.01217 14.0027 8.97018 14.0016 8.92993 13.9914C8.88969 13.9812 8.8522 13.9623 8.82015 13.9359C8.78811 13.9095 8.7623 13.8763 8.74458 13.8388C8.72686 13.8013 8.71766 13.7603 8.71766 13.7188V5.28123C8.71766 5.23972 8.72686 5.19873 8.74458 5.16119C8.7623 5.12365 8.78811 5.0905 8.82015 5.06412C8.8522 5.03773 8.88969 5.01877 8.92993 5.00859C8.97018 4.99841 9.01217 4.99726 9.05291 5.00523ZM9.28016 5.62286V13.3775L13.0302 12.644V6.35674L9.28016 5.62286ZM8.34266 5.93786V6.49999H6.65515V12.5H8.34266V13.0625H6.3739C6.30588 13.0625 6.24017 13.0378 6.18894 12.9931C6.13771 12.9483 6.10444 12.8865 6.09528 12.8191L6.09265 12.7813V6.21874C6.09265 6.15077 6.11727 6.08511 6.16194 6.03389C6.20661 5.98267 6.26832 5.94935 6.33565 5.94011L6.3739 5.93749H8.34266V5.93786ZM10.2177 9.12537C10.3171 9.12537 10.4125 9.16488 10.4828 9.23521C10.5532 9.30554 10.5927 9.40092 10.5927 9.50038C10.5927 9.59983 10.5532 9.69522 10.4828 9.76554C10.4125 9.83587 10.3171 9.87538 10.2177 9.87538C10.1182 9.87538 10.0228 9.83587 9.9525 9.76554C9.88217 9.69522 9.84267 9.59983 9.84267 9.50038C9.84267 9.40092 9.88217 9.30554 9.9525 9.23521C10.0228 9.16488 10.1182 9.12537 10.2177 9.12537Z" fill="white"/>
</svg>
