<svg width="22" height="22" viewBox="0 0 22 22" fill="none" xmlns="http://www.w3.org/2000/svg">
<path d="M11 22C17.0751 22 22 17.0751 22 11C22 4.92487 17.0751 0 11 0C4.92487 0 0 4.92487 0 11C0 17.0751 4.92487 22 11 22Z" fill="#1A212F"/>
<g clip-path="url(#clip0_1_293)">
<path d="M11.3062 4.01167C12.0704 4 12.8287 4.00583 13.5871 4C13.6337 4.8925 13.9546 5.8025 14.6079 6.4325C15.2612 7.08 16.1829 7.3775 17.0812 7.47667V9.8275C16.2412 9.79833 15.3954 9.62333 14.6312 9.26167C14.2987 9.11 13.9896 8.9175 13.6862 8.71917C13.6804 10.4225 13.6921 12.1258 13.6746 13.8233C13.6279 14.64 13.3596 15.4508 12.8871 16.1217C12.1229 17.2417 10.7987 17.9708 9.43957 17.9942C8.60541 18.0408 7.77124 17.8133 7.05957 17.3933C5.88124 16.6992 5.05291 15.4275 4.93041 14.0625C4.91874 13.7708 4.91291 13.4792 4.92457 13.1933C5.02957 12.085 5.57791 11.0233 6.42957 10.3C7.39791 9.46 8.75124 9.0575 10.0171 9.29667C10.0287 10.16 9.99374 11.0233 9.99374 11.8867C9.41624 11.7 8.73957 11.7525 8.23207 12.1025C7.86457 12.3417 7.58457 12.7092 7.43874 13.1233C7.31624 13.4208 7.35124 13.7475 7.35707 14.0625C7.49707 15.0192 8.41874 15.8242 9.39874 15.7367C10.0521 15.7308 10.6762 15.3517 11.0146 14.7975C11.1254 14.605 11.2479 14.4067 11.2537 14.1792C11.3121 13.135 11.2887 12.0967 11.2946 11.0525C11.3004 8.70167 11.2887 6.35667 11.3062 4.01167Z" fill="white"/>
</g>
<defs>
<clipPath id="clip0_1_293">
<rect width="14" height="14" fill="white" transform="translate(4 4)"/>
</clipPath>
</defs>
</svg>
